# xmcd
# Track frame offsets:
# 150
# 16060
# 27813
# 42614
# 55129
# 72514
# 84124
# 104914
# 123404
# 141383
# 153497
# 163953
# 181484
# 198132
# 217609
# 234925
# 252680
# 269310
# 281519
# 297257
#
# Disc length: 4169 seconds
# Revision: 0
# Processed by: cddbd v1.5.1PL0 Copyright (c) Steve Scherf et al.
# Submitted via: VisiTrax 2.9.10.228 - For more info visit www.synapsa.com
#
DISCID=27104714
DTITLE=Gaye Adegbalola with Roddy Barnes - Neo_Classic Blues
DYEAR=1900
DGENRE=
TTITLE0=Ma Rainey's Black Bottom
TTITLE1=Pigmeat On The Line
TTITLE2=Crazy Blues
TTITLE3=Yonder Come The Blues
TTITLE4=The Dirty Dozens
TTITLE5=Prove It On Me Blues
TTITLE6=It's Alright Fir A Man To Cry
TTITLE7=See See Rider Blues
TTITLE8=Twisted Mind Blues
TTITLE9=Black Eyed Blues
TTITLE10=Up The Country Blues
TTITLE11=I Got It Bad And That Ain't Good
TTITLE12=Careless Love Blues
TTITLE13=Down Hearted Blues
TTITLE14=Nothing In Rambling
TTITLE15=Sloppy Drunk
TTITLE16=How Can I say I Miss You
TTITLE17=BD Womand's Blues
TTITLE18=Nobody Know The Way I Feel This Morning
TTITLE19=Summer Sky
EXTD=
EXTT0=
EXTT1=
EXTT2=
EXTT3=
EXTT4=
EXTT5=
EXTT6=
EXTT7=
EXTT8=
EXTT9=
EXTT10=
EXTT11=
EXTT12=
EXTT13=
EXTT14=
EXTT15=
EXTT16=
EXTT17=
EXTT18=
EXTT19=
PLAYORDER=
